<?xml version="1.0" standalone="no"?>
<!DOCTYPE svg PUBLIC "-//W3C//DTD SVG 20010904//EN"
 "http://www.w3.org/TR/2001/REC-SVG-20010904/DTD/svg10.dtd">
<svg version="1.0" xmlns="http://www.w3.org/2000/svg"
 width="2160.000000pt" height="2160.000000pt" viewBox="0 0 2160.000000 2160.000000"
 preserveAspectRatio="xMidYMid meet">

<g transform="translate(0.000000,2160.000000) scale(0.100000,-0.100000)"
fill="#000000" stroke="none">
<path d="M7015 18553 c-2123 -1394 -3866 -2537 -3873 -2542 -11 -6 -21 -945
-53 -5150 -22 -2829 -39 -5145 -37 -5146 2 -2 1728 -1173 3837 -2604 l3833
-2600 57 38 c31 21 1773 1164 3871 2541 2098 1376 3816 2504 3818 2505 4 4 84
10286 80 10290 -6 6 -7624 5172 -7648 5187 -25 15 -87 -25 -3885 -2519z m6080
-1426 l2219 -2213 -32 -4330 c-18 -2381 -33 -4364 -32 -4406 l0 -77 -2255
-2180 c-1240 -1200 -2258 -2181 -2262 -2181 -5 0 -1007 996 -2228 2213 l-2219
2213 32 4320 c18 2375 33 4358 32 4406 l0 86 2255 2181 c1241 1200 2259 2181
2263 2181 4 0 1006 -996 2227 -2213z"/>
<path d="M7563 11272 c-596 -256 -1083 -469 -1083 -472 0 -3 489 -216 1088
-473 l1087 -467 2145 0 2145 0 1088 467 c598 257 1087 470 1087 473 0 3 -489
216 -1087 473 l-1088 467 -2150 -1 -2150 -1 -1082 -466z m3392 143 c217 -55
405 -243 460 -460 19 -76 19 -234 0 -310 -55 -217 -243 -405 -460 -460 -76
-19 -234 -19 -310 0 -220 56 -404 240 -460 460 -8 32 -15 102 -15 155 0 53 7
123 15 155 55 218 238 402 455 459 74 20 240 20 315 1z"/>
</g>
</svg>
