<?xml version="1.0" encoding="UTF-8"?>
<svg version="1.1" xmlns="http://www.w3.org/2000/svg" width="2160" height="2160">
<path d="M0 0 C2.78014628 1.54970838 5.41306078 3.20004593 8.04370117 4.9934082 C9.09992676 5.70964355 10.15615234 6.42587891 11.24438477 7.16381836 C12.32929199 7.9055127 13.41419922 8.64720703 14.53198242 9.41137695 C16.60081901 10.81137345 18.66983024 12.21111189 20.73901367 13.6105957 C22.36921395 14.71778984 23.99940487 15.82499792 25.62915039 16.93286133 C28.67544668 19.0036144 31.72294761 21.07259376 34.77026367 23.1418457 C35.40509674 23.57298676 36.03992981 24.00412781 36.69400024 24.44833374 C43.15366116 28.83482463 49.6183958 33.21381263 56.0836792 37.5920105 C70.08829801 47.07576234 84.08599244 56.56967768 98.08032227 66.06860352 C103.31284447 69.62021666 108.54592789 73.17100276 113.77896118 76.72186279 C116.69665717 78.70166807 119.61431805 80.68152509 122.53198242 82.66137695 C123.69864892 83.45304387 124.86531559 84.24471054 126.03198242 85.03637695 C171.53198242 115.91137695 171.53198242 115.91137695 217.03198242 146.78637695 C217.60949753 147.17826202 218.18701263 147.57014709 218.7820282 147.97390747 C219.94854295 148.76547142 221.11505703 149.55703636 222.28157043 150.34860229 C225.20055583 152.32934875 228.11955299 154.31007784 231.03857422 156.29077148 C236.26091338 159.83439934 241.48317581 163.37813992 246.70498657 166.92254639 C259.4765845 175.59150252 272.25150445 184.25551681 285.03198242 192.91137695 C298.3866415 201.9561139 311.73495036 211.0101706 325.08032227 220.06860352 C330.31284447 223.62021666 335.54592789 227.17100276 340.77896118 230.72186279 C343.69665717 232.70166807 346.61431805 234.68152509 349.53198242 236.66137695 C350.69864892 237.45304387 351.86531559 238.24471054 353.03198242 239.03637695 C392.69864909 265.95304362 432.36531576 292.86971029 472.03198242 319.78637695 C472.60949753 320.17826202 473.18701263 320.57014709 473.7820282 320.97390747 C474.94854295 321.76547142 476.11505703 322.55703636 477.28157043 323.34860229 C480.20055583 325.32934875 483.11955299 327.31007784 486.03857422 329.29077148 C491.26091338 332.83439934 496.48317581 336.37813992 501.70498657 339.92254639 C514.4765845 348.59150252 527.25150445 357.25551681 540.03198242 365.91137695 C553.3866415 374.9561139 566.73495036 384.0101706 580.08032227 393.06860352 C585.31284447 396.62021666 590.54592789 400.17100276 595.77896118 403.72186279 C598.69665717 405.70166807 601.61431805 407.68152509 604.53198242 409.66137695 C605.69864892 410.45304387 606.86531559 411.24471054 608.03198242 412.03637695 C699.03198249 473.786377 699.03198249 473.786377 700.7817688 474.97373962 C701.94913809 475.76587798 703.11651684 476.5580024 704.28390503 477.35011292 C707.18989904 479.32194881 710.09573142 481.29402203 713.0012207 483.26660156 C718.37783009 486.91650325 723.75586443 490.56424008 729.1395874 494.2036438 C731.63119431 495.88818375 734.12190059 497.57405281 736.61254883 499.26000977 C737.77877124 500.04891559 738.94541479 500.83719934 740.11254883 501.62475586 C742.7651148 503.41474957 745.40625222 505.21518305 748.0240702 507.05582416 C750.3464923 508.66132956 752.69595574 510.07305757 755.18009669 511.41286576 C760.55370151 514.47388345 764.75483363 517.07807082 766.76823795 523.12310195 C767.37232776 527.78220391 767.14102616 532.42382897 766.95176697 537.10470581 C766.92973636 538.97304106 766.91419727 540.84146164 766.90440142 542.70990109 C766.86875205 546.87081495 766.78762079 551.02773642 766.67413819 555.18724847 C766.48267165 562.26327833 766.3945141 569.33877276 766.31650448 576.41683769 C766.22034653 584.59949531 766.11396793 592.78163877 765.97337562 600.96365321 C765.57165933 624.43242431 765.36592128 647.89944815 765.22985344 671.37118706 C765.20042639 676.43588068 765.1699941 681.50056829 765.13968927 686.56525671 C765.12728975 688.63935215 765.11489078 690.71344758 765.10249234 692.78754302 C765.09628762 693.82423268 765.0900829 694.86092233 765.08369015 695.92902683 C765.07106438 698.04363846 765.05849584 700.15825042 765.04598344 702.27286272 C764.89945742 727.00254494 764.71130356 751.73187118 764.51804784 776.46122618 C764.4809242 781.21491145 764.44400882 785.96859833 764.40708215 790.72228514 C764.34121438 799.20044421 764.27522064 807.67860229 764.20895404 816.15675826 C764.07295711 833.55845155 763.93874348 850.96015792 763.8056469 868.36187363 C763.79130794 870.23612366 763.79130794 870.23612366 763.77667931 872.14823732 C763.73785537 877.2230057 763.6990367 882.29777411 763.66022713 887.3725426 C763.30426565 933.91395982 762.94359833 980.45533952 762.5805374 1026.99670183 C762.24871475 1069.53414543 761.92144361 1112.07162164 761.59814453 1154.60913086 C761.51618318 1165.39263493 761.43421182 1176.17613892 761.35217381 1186.95964241 C761.34712096 1187.62383968 761.34206811 1188.28803695 761.33686215 1188.97236141 C761.06423261 1224.80630866 760.78744479 1260.64022376 760.5093016 1296.4741286 C760.47023929 1301.50769412 760.43118469 1306.54125969 760.39213371 1311.57482529 C760.38251908 1312.81380181 760.37290445 1314.05277833 760.36299847 1315.32929959 C760.21815031 1334.00181804 760.07555844 1352.67435284 759.93408394 1371.34689713 C759.77372398 1392.51062082 759.61015181 1413.67431693 759.44229526 1434.83798255 C759.34854882 1446.66922946 759.25730008 1458.50048939 759.16964652 1470.33178305 C759.11088289 1478.22961617 759.04882522 1486.12741896 758.98407738 1494.02520528 C758.94728474 1498.52427804 758.91191815 1503.02334945 758.88054938 1507.52246358 C758.85196746 1511.61757018 758.81918065 1515.71262117 758.78309819 1519.80766835 C758.77088238 1521.27634535 758.76017027 1522.74503588 758.75118547 1524.2137362 C758.72376672 1528.61476328 758.65321131 1533.01193721 758.53198242 1537.41137695 C758.5017401 1538.56159182 758.47149778 1539.71180669 758.44033902 1540.89687656 C758.38635025 1541.96800398 758.33236147 1543.03913141 758.27673668 1544.14271724 C758.2341493 1545.07563096 758.19156193 1546.00854469 758.14768403 1546.96972852 C757.3451977 1550.15209714 756.00339109 1551.15899243 753.38354492 1553.05981445 C751.44560625 1554.19868808 749.49364079 1555.31386345 747.53198242 1556.41137695 C745.84441241 1557.51465389 744.15730334 1558.61879923 742.48284912 1559.74188232 C740.63154676 1560.98320968 738.76925938 1562.20622113 736.90307617 1563.42504883 C736.25322754 1563.84971436 735.60337891 1564.27437988 734.93383789 1564.71191406 C733.93054443 1565.36752319 733.93054443 1565.36752319 732.90698242 1566.03637695 C731.49411303 1566.96134072 730.08135494 1567.88647453 728.66870117 1568.81176758 C725.74172029 1570.72876349 722.81426805 1572.64503637 719.88647461 1574.56079102 C713.75704811 1578.5722778 707.63349313 1582.59270448 701.50982666 1586.61297607 C698.18415104 1588.79619155 694.85804366 1590.97874903 691.53198242 1593.16137695 C690.19864705 1594.03637384 688.86531371 1594.91137384 687.53198242 1595.78637695 C647.53198372 1622.0363761 647.53198372 1622.0363761 645.5320282 1623.34884644 C644.19854169 1624.22394727 642.86505577 1625.099049 641.53157043 1625.97415161 C638.2005854 1628.1601161 634.86959027 1630.3460652 631.53857422 1632.53198242 C625.5105369 1636.48779124 619.48257544 1640.44371541 613.45498657 1644.40020752 C599.38924546 1653.63290674 585.32115417 1662.86197996 571.24639893 1672.08093262 C557.68548674 1680.96354534 544.13264696 1689.8584432 530.58032227 1698.75415039 C524.56350188 1702.70352106 518.54621478 1706.65218054 512.52896118 1710.60089111 C509.19661565 1712.78769035 505.86430058 1714.97453601 502.53198242 1717.16137695 C501.19864923 1718.03637718 499.8653159 1718.91137718 498.53198242 1719.78637695 C497.87198242 1720.21950195 497.21198242 1720.65262695 496.53198242 1721.09887695 C362.53198221 1809.03637709 362.53198221 1809.03637709 360.5320282 1810.34884644 C359.19854169 1811.22394727 357.86505577 1812.099049 356.53157043 1812.97415161 C353.2005854 1815.1601161 349.86959027 1817.3460652 346.53857422 1819.53198242 C340.5105369 1823.48779124 334.48257544 1827.44371541 328.45498657 1831.40020752 C314.38924546 1840.63290674 300.32115417 1849.86197996 286.24639893 1859.08093262 C272.68548674 1867.96354534 259.13264696 1876.8584432 245.58032227 1885.75415039 C239.56350188 1889.70352106 233.54621478 1893.65218054 227.52896118 1897.60089111 C224.19661565 1899.78769035 220.86430058 1901.97453601 217.53198242 1904.16137695 C216.19864923 1905.03637718 214.8653159 1905.91137718 213.53198242 1906.78637695 C212.87198242 1907.21950195 212.21198242 1907.65262695 211.53198242 1908.09887695 C45.53198243 2017.03637695 45.53198243 2017.03637695 43.53240967 2018.34857178 C42.19762186 2019.22454282 40.86286442 2020.10056016 39.52813721 2020.97662354 C36.21730355 2023.14964503 32.90596464 2025.32188808 29.59350586 2027.49243164 C23.32427249 2031.6016526 17.06086811 2035.71912995 10.81384277 2039.86206055 C7.85231614 2041.82545779 4.88806352 2043.78471736 1.92358398 2045.74365234 C0.50684607 2046.68152251 -0.90854309 2047.62143357 -2.32250977 2048.56347656 C-4.27912312 2049.86687273 -6.24021091 2051.16325944 -8.20239258 2052.45825195 C-8.78003357 2052.84571594 -9.35767456 2053.23317993 -9.95281982 2053.63238525 C-15.74363049 2057.43392496 -15.74363049 2057.43392496 -18.46801758 2057.41137695 C-20.90695172 2056.06614202 -23.04741162 2054.70544348 -25.30004883 2053.0949707 C-25.96051712 2052.63835556 -26.62098541 2052.18174042 -27.3014679 2051.71128845 C-28.68305563 2050.75594057 -30.06130973 2049.79575533 -31.43634033 2048.83099365 C-33.91842241 2047.09666052 -36.42632789 2045.40317209 -38.93888855 2043.71343994 C-40.75713914 2042.49060387 -42.57148234 2041.26217051 -44.38476562 2040.03198242 C-45.30580582 2039.40715973 -45.30580582 2039.40715973 -46.24545288 2038.76971436 C-47.19093491 2038.12827484 -47.19093491 2038.12827484 -48.15551758 2037.47387695 C-49.50550406 2036.55863118 -50.855521 2035.64343034 -52.20556641 2034.72827148 C-56.29360908 2031.95679703 -60.38086813 2029.18416843 -64.46801758 2026.41137695 C-65.70108572 2025.57494413 -66.93415849 2024.73851813 -68.16723633 2023.90209961 C-74.54391062 2019.57654146 -80.91980875 2015.24984065 -87.29521179 2010.92240906 C-93.10142333 2006.98133816 -98.90818892 2003.04108396 -104.71499634 1999.10089111 C-107.63269233 1997.12108584 -110.5503532 1995.14122882 -113.46801758 1993.16137695 C-114.63468408 1992.36971004 -115.80135074 1991.57804337 -116.96801758 1990.78637695 C-156.63468424 1963.86971029 -196.30135091 1936.95304362 -235.96801758 1910.03637695 C-236.54553268 1909.64449188 -237.12304779 1909.25260681 -237.71806335 1908.84884644 C-238.88457811 1908.05728249 -240.05109219 1907.26571755 -241.21760559 1906.47415161 C-244.13659098 1904.49340516 -247.05558815 1902.51267607 -249.97460938 1900.53198242 C-255.19694853 1896.98835457 -260.41921097 1893.44461398 -265.64102173 1889.90020752 C-278.41261966 1881.23125138 -291.18753961 1872.5672371 -303.96801758 1863.91137695 C-317.32267665 1854.86664001 -330.67098552 1845.81258331 -344.01635742 1836.75415039 C-349.24887963 1833.20253725 -354.48196305 1829.65175114 -359.71499634 1826.10089111 C-362.63269233 1824.12108584 -365.5503532 1822.14122882 -368.46801758 1820.16137695 C-369.63468408 1819.36971004 -370.80135074 1818.57804337 -371.96801758 1817.78637695 C-411.63468424 1790.86971029 -451.30135091 1763.95304362 -490.96801758 1737.03637695 C-491.54553268 1736.64449188 -492.12304779 1736.25260681 -492.71806335 1735.84884644 C-493.88457811 1735.05728249 -495.05109219 1734.26571755 -496.21760559 1733.47415161 C-499.13659098 1731.49340516 -502.05558815 1729.51267607 -504.97460938 1727.53198242 C-510.19694853 1723.98835457 -515.41921097 1720.44461398 -520.64102173 1716.90020752 C-533.41261966 1708.23125138 -546.18753961 1699.5672371 -558.96801758 1690.91137695 C-572.32267665 1681.86664001 -585.67098552 1672.81258331 -599.01635742 1663.75415039 C-604.24887963 1660.20253725 -609.48196305 1656.65175114 -614.71499634 1653.10089111 C-617.63269233 1651.12108584 -620.5503532 1649.14122882 -623.46801758 1647.16137695 C-624.63468408 1646.36971004 -625.80135074 1645.57804337 -626.96801758 1644.78637695 C-717.96801764 1583.03637691 -717.96801764 1583.03637691 -719.71780396 1581.84901428 C-720.88517325 1581.05687592 -722.052552 1580.26475151 -723.21994019 1579.47264099 C-726.12593419 1577.50080509 -729.03176657 1575.52873188 -731.93725586 1573.55615234 C-737.31386525 1569.90625065 -742.69189958 1566.25851382 -748.07562256 1562.61911011 C-750.56722947 1560.93457016 -753.05793575 1559.2487011 -755.54858398 1557.56274414 C-756.7148064 1556.77383831 -757.88144995 1555.98555456 -759.04858398 1555.19799805 C-761.70099127 1553.40811142 -764.34208868 1551.60782146 -766.96010536 1549.76780087 C-769.28303869 1548.16208967 -771.63389695 1546.7465754 -774.11613184 1545.40204805 C-779.45761872 1542.34896304 -783.68188414 1539.74644524 -785.7042731 1533.7393018 C-786.30802594 1529.14123792 -786.07707107 1524.56115528 -785.88780212 1519.9410553 C-785.86576738 1518.09553583 -785.85023066 1516.24992989 -785.84043658 1514.40430486 C-785.80477505 1510.29106278 -785.72362065 1506.18185612 -785.61017334 1502.07003105 C-785.41856526 1495.06588392 -785.33048759 1488.06227668 -785.25253963 1481.05606937 C-785.15629252 1472.93925522 -785.0498686 1464.82295689 -784.90941077 1456.70678777 C-784.50608979 1433.30563632 -784.30157918 1409.90622056 -784.1658886 1386.50206678 C-784.1364576 1381.43680728 -784.10602474 1376.37155376 -784.07572442 1371.30629939 C-784.06332444 1369.23141641 -784.05092547 1367.15653342 -784.0385275 1365.08165042 C-784.03232278 1364.04445298 -784.02611805 1363.00725554 -784.01972531 1361.93862788 C-784.00709902 1359.82273465 -783.99453049 1357.70684109 -783.9820186 1355.59094718 C-783.83544774 1330.83605793 -783.64729073 1306.08152393 -783.454083 1281.32696091 C-783.41695754 1276.56687002 -783.38004256 1271.8067775 -783.34311731 1267.04668506 C-783.27724804 1258.55645204 -783.21125481 1250.06622001 -783.1449892 1241.57599008 C-783.00901186 1224.15186356 -782.87479533 1206.72772414 -782.74168205 1189.30357552 C-782.73212275 1188.05262041 -782.72256345 1186.8016653 -782.71271447 1185.51280247 C-782.6738907 1180.43215583 -782.63507204 1175.35150915 -782.59626229 1170.2708624 C-782.2402649 1123.67106185 -781.8796017 1077.07129836 -781.51657256 1030.47155214 C-781.1847705 987.87966758 -780.85750016 945.28775056 -780.53417969 902.69580078 C-780.45221851 891.89922533 -780.37024721 881.10264996 -780.28820896 870.3060751 C-780.28062969 869.30857509 -780.28062969 869.30857509 -780.2728973 868.29092358 C-780.00026535 832.41336712 -779.72347729 796.53584274 -779.44533676 760.65832859 C-779.40627436 755.61856883 -779.36721975 750.578809 -779.32816887 745.53904915 C-779.31855424 744.29854298 -779.30893961 743.05803681 -779.29903363 741.77993954 C-779.15418173 723.08384642 -779.01159013 704.38773695 -778.87011909 685.69161797 C-778.70975763 664.50042173 -778.54618571 643.30925302 -778.37833042 622.11811476 C-778.28458328 610.27132046 -778.1933346 598.42451314 -778.10568168 586.57767215 C-778.04691832 578.66944016 -777.98486065 570.76123848 -777.92011254 562.85305324 C-777.88331951 558.34802346 -777.84795287 553.84299504 -777.81658453 549.33792394 C-777.78800306 545.23739975 -777.75521632 541.13693112 -777.71913335 537.03646628 C-777.7069173 535.56582577 -777.69620525 534.09517176 -777.68722062 532.62450796 C-777.65980687 528.21831903 -777.58927882 523.81597959 -777.46801758 519.41137695 C-777.43777526 518.26079251 -777.40753293 517.11020807 -777.37637418 515.92475743 C-777.3223854 514.85361986 -777.26839663 513.78248228 -777.21277183 512.678886 C-777.14889077 511.2797646 -777.14889077 511.2797646 -777.08371919 509.85237813 C-776.28115311 506.67053695 -774.93899377 505.66353331 -772.31958008 503.76293945 C-770.38164141 502.62406582 -768.42967594 501.50889045 -766.46801758 500.41137695 C-764.78044756 499.30810001 -763.0933385 498.20395467 -761.41888428 497.08087158 C-759.56758191 495.83954423 -757.70529453 494.61653277 -755.83911133 493.39770508 C-755.1892627 492.97303955 -754.53941406 492.54837402 -753.86987305 492.11083984 C-753.20101074 491.67376709 -752.53214844 491.23669434 -751.84301758 490.78637695 C-750.43014818 489.86141319 -749.0173901 488.93627938 -747.60473633 488.01098633 C-744.67775545 486.09399042 -741.75030321 484.17771754 -738.82250977 482.26196289 C-732.69308327 478.25047611 -726.56952829 474.23004942 -720.44586182 470.20977783 C-717.1201862 468.02656236 -713.79407882 465.84400487 -710.46801758 463.66137695 C-709.1346822 462.78638006 -707.80134887 461.91138006 -706.46801758 461.03637695 C-698.46801757 455.78637695 -698.46801757 455.78637695 -696.46806335 454.47390747 C-695.13457685 453.59880663 -693.80109093 452.72370491 -692.46760559 451.84860229 C-689.13662056 449.66263781 -685.80562542 447.47668871 -682.47460938 445.29077148 C-676.44657206 441.33496267 -670.4186106 437.37903849 -664.39102173 433.42254639 C-650.32528062 424.18984716 -636.25718933 414.96077395 -622.18243408 405.74182129 C-608.62152189 396.85920857 -595.06868211 387.96431071 -581.51635742 379.06860352 C-575.49953704 375.11923284 -569.48224994 371.17057337 -563.46499634 367.22186279 C-560.13265081 365.03506355 -556.80033574 362.8482179 -553.46801758 360.66137695 C-552.13468439 359.78637673 -550.80135106 358.91137673 -549.46801758 358.03637695 C-548.80801758 357.60325195 -548.14801758 357.17012695 -547.46801758 356.72387695 C-413.46801719 268.7863767 -413.46801719 268.7863767 -411.46806335 267.47390747 C-410.13457685 266.59880663 -408.80109093 265.72370491 -407.46760559 264.84860229 C-404.13662056 262.66263781 -400.80562542 260.47668871 -397.47460938 258.29077148 C-391.44657206 254.33496267 -385.4186106 250.37903849 -379.39102173 246.42254639 C-365.32528062 237.18984716 -351.25718933 227.96077395 -337.18243408 218.74182129 C-323.62152189 209.85920857 -310.06868211 200.96431071 -296.51635742 192.06860352 C-290.49953704 188.11923284 -284.48224994 184.17057337 -278.46499634 180.22186279 C-275.13265081 178.03506355 -271.80033574 175.8482179 -268.46801758 173.66137695 C-267.13468439 172.78637673 -265.80135106 171.91137673 -264.46801758 171.03637695 C-263.80801758 170.60325195 -263.14801758 170.17012695 -262.46801758 169.72387695 C-96.46801802 60.78637724 -96.46801802 60.78637724 -94.46806335 59.47390747 C-93.13457685 58.59880663 -91.80109093 57.72370491 -90.46760559 56.84860229 C-87.13662056 54.66263781 -83.80562542 52.47668871 -80.47460938 50.29077148 C-73.77036439 45.89121156 -67.0662915 41.49138975 -60.36254883 37.09106445 C-54.37937084 33.16372768 -48.39569871 29.23714487 -42.41157532 25.31124878 C-38.35711236 22.65121612 -34.3033336 19.99014419 -30.24995422 17.32846069 C-27.56681199 15.56684555 -24.88312805 13.80605697 -22.1993103 12.04547119 C-20.93478062 11.21569838 -19.67047262 10.38558762 -18.40640259 9.55511475 C-16.66321259 8.40993889 -14.91922563 7.26598659 -13.17504883 6.12231445 C-12.18996338 5.47568848 -11.20487793 4.8290625 -10.18994141 4.1628418 C-8.84258911 3.2958667 -8.84258911 3.2958667 -7.46801758 2.41137695 C-6.62843506 1.79858887 -5.78885254 1.18580078 -4.92382812 0.55444336 C-2.46801758 -0.58862305 -2.46801758 -0.58862305 0 0 Z M-5.56591797 176.41162109 C-6.92704712 177.79015259 -6.92704712 177.79015259 -8.31567383 179.1965332 C-9.05085487 179.93739418 -9.05085487 179.93739418 -9.80088806 180.69322205 C-11.90197166 182.81062523 -13.99731376 184.93367374 -16.09277344 187.05664062 C-21.38846985 192.4159289 -26.68369896 197.69028224 -32.41894531 202.58496094 C-36.97159151 206.64290759 -41.18746646 211.06971667 -45.46801758 215.41137695 C-50.95618669 220.97789518 -56.44177638 226.46734171 -62.38598633 231.55200195 C-66.94664384 235.62493436 -71.17627887 240.05836937 -75.46801758 244.41137695 C-85.97386627 255.06720717 -85.97386627 255.06720717 -90.43676758 258.88012695 C-95.91883835 263.56947466 -100.90526863 268.77983621 -105.96801758 273.91137695 C-111.63041988 279.65071905 -117.26878549 285.32827662 -123.40356445 290.56958008 C-127.9599388 294.63453846 -132.18224328 299.06441893 -136.46801758 303.41137695 C-141.95618669 308.97789518 -147.44177638 314.46734171 -153.38598633 319.55200195 C-157.94664384 323.62493436 -162.17627887 328.05836937 -166.46801758 332.41137695 C-171.95618669 337.97789518 -177.44177638 343.46734171 -183.38598633 348.55200195 C-187.94664384 352.62493436 -192.17627887 357.05836937 -196.46801758 361.41137695 C-206.97386627 372.06720717 -206.97386627 372.06720717 -211.43676758 375.88012695 C-216.91883835 380.56947466 -221.90526863 385.77983621 -226.96801758 390.91137695 C-232.63041988 396.65071905 -238.26878549 402.32827662 -244.40356445 407.56958008 C-248.9599388 411.63453846 -253.18224328 416.06441893 -257.46801758 420.41137695 C-262.95618669 425.97789518 -268.44177638 431.46734171 -274.38598633 436.55200195 C-278.94664384 440.62493436 -283.17627887 445.05836937 -287.46801758 449.41137695 C-297.97386627 460.06720717 -297.97386627 460.06720717 -302.43676758 463.88012695 C-307.91883835 468.56947466 -312.90526863 473.77983621 -317.96801758 478.91137695 C-323.63041988 484.65071905 -329.26878549 490.32827662 -335.40356445 495.56958008 C-339.9599388 499.63453846 -344.18224328 504.06441893 -348.46801758 508.41137695 C-353.95618669 513.97789518 -359.44177638 519.46734171 -365.38598633 524.55200195 C-369.94664384 528.62493436 -374.17627887 533.05836937 -378.46801758 537.41137695 C-383.95618669 542.97789518 -389.44177638 548.46734171 -395.38598633 553.55200195 C-399.94664384 557.62493436 -404.17627887 562.05836937 -408.46801758 566.41137695 C-418.97431688 577.06766422 -418.97431688 577.06766422 -423.41723633 580.8605957 C-429.01763725 585.65013053 -434.10801185 590.98280716 -439.28051758 596.22387695 C-441.32578573 598.29579355 -443.37439714 600.36432139 -445.42504883 602.4309082 C-446.32199463 603.33945557 -447.21894043 604.24800293 -448.14306641 605.18408203 C-450.46801758 607.41137695 -450.46801758 607.41137695 -453.46801758 609.41137695 C-454.05091796 611.61433205 -454.05091796 611.61433205 -454.14197057 614.20764697 C-454.20631353 615.2011938 -454.27065648 616.19474064 -454.33694922 617.21839495 C-454.56210728 622.70351459 -454.65259944 628.18160623 -454.68476963 633.67105675 C-454.70169576 635.62116612 -454.70169576 635.62116612 -454.71896383 637.61067164 C-454.75004143 641.20616438 -454.77545866 644.80167781 -454.79991901 648.39722083 C-454.82758816 652.31534677 -454.86058429 656.23342852 -454.89289087 660.15151846 C-454.9487626 667.01647991 -455.00123816 673.88146078 -455.05147552 680.74646568 C-455.12622368 690.95940603 -455.20621562 701.17230066 -455.2872401 711.3851929 C-455.4319678 729.64951962 -455.57148 747.9138834 -455.70882771 766.17826694 C-455.82943014 782.21336777 -455.95182979 798.24845367 -456.07598686 814.28352737 C-456.0842362 815.34923878 -456.09248554 816.41495018 -456.10098487 817.51295588 C-456.13448532 821.84045826 -456.1679943 826.16796058 -456.20151597 830.4954628 C-456.51635929 871.14351991 -456.82602131 911.79161503 -457.13325532 952.43973029 C-457.40471889 988.35153415 -457.68025325 1024.26330444 -457.95947266 1060.17504883 C-458.03063979 1069.32874221 -458.10180209 1078.48243563 -458.17292118 1087.63612938 C-458.18168354 1088.76391543 -458.19044589 1089.89170149 -458.19947377 1091.05366288 C-458.43373145 1121.21303826 -458.6646065 1151.37243954 -458.89449018 1181.53184855 C-458.91935783 1184.79387395 -458.94422672 1188.05589935 -458.96909753 1191.31792473 C-458.9855902 1193.48112407 -459.00208047 1195.64432343 -459.01856831 1197.8075228 C-459.13216982 1212.70797018 -459.24709847 1227.60840677 -459.36301053 1242.50883635 C-459.42733665 1250.78332129 -459.49136869 1259.05780851 -459.55528324 1267.33229665 C-459.57097629 1269.36384715 -459.58668026 1271.39539758 -459.6023953 1273.42694791 C-459.77341138 1295.54620492 -459.93833341 1317.66546863 -460.07797337 1339.78494835 C-460.08363346 1340.67920315 -460.08929356 1341.57345796 -460.09512518 1342.49481139 C-460.14482625 1350.35736009 -460.19417491 1358.21991085 -460.24177393 1366.08247258 C-460.35806301 1385.25780558 -460.51060133 1404.43161221 -460.74292356 1423.60591495 C-460.83863833 1431.59260567 -460.90911851 1439.57942413 -460.96821184 1447.56646479 C-461.01304154 1453.41097488 -461.08940645 1459.25369924 -461.19461522 1465.09741932 C-461.24756303 1468.48873303 -461.26789297 1471.87959127 -461.27752109 1475.27127931 C-461.28837308 1476.77765645 -461.31276513 1478.28401581 -461.35269646 1479.78990272 C-461.6805349 1487.67930553 -461.6805349 1487.67930553 -458.91219342 1494.84929156 C-456.88413485 1496.93380131 -454.79375967 1498.66854863 -452.46801758 1500.41137695 C-451.25897305 1501.43716692 -450.05868029 1502.47335632 -448.86710358 1503.51938629 C-448.20117597 1504.09395726 -447.53524836 1504.66852823 -446.84914112 1505.26051044 C-441.04454449 1510.50379676 -435.60466397 1516.1461846 -430.0826416 1521.68322754 C-428.61734987 1523.1487995 -427.15183619 1524.61414957 -425.68612051 1526.07929754 C-421.66983607 1530.09528709 -417.65666894 1534.11437909 -413.64400363 1538.13398433 C-409.31176544 1542.47260621 -404.97661522 1546.80831664 -400.64179993 1551.1443634 C-393.1336788 1558.65536928 -385.62732613 1566.16813825 -378.12214661 1573.68208313 C-367.26276419 1584.55408723 -356.40008581 1595.42279369 -345.53653282 1606.29063028 C-340.47147676 1611.35769234 -335.40658149 1616.42491512 -330.34172821 1621.49217987 C-329.83475088 1621.99939822 -329.32777354 1622.50661656 -328.80543326 1623.02920516 C-316.74634808 1635.0940979 -304.68883811 1647.16056452 -292.6315918 1659.22729492 C-292.1042318 1659.75506856 -291.57687181 1660.2828422 -291.03353121 1660.82660898 C-282.47582281 1669.3910341 -273.91821006 1677.9555548 -265.36060917 1686.52008736 C-257.34193283 1694.5452568 -249.32322144 1702.57039121 -241.30444336 1710.59545898 C-240.77737023 1711.12294671 -240.25029709 1711.65043443 -239.70725205 1712.19390663 C-227.67037563 1724.24023403 -215.63304789 1736.28610996 -203.59430695 1748.33057404 C-203.08814294 1748.83697904 -202.58197893 1749.34338404 -202.06047662 1749.86513465 C-197.00683809 1754.92115871 -191.95312074 1759.97710399 -186.89928579 1765.03293172 C-176.04871344 1775.8878174 -165.19952083 1786.74407694 -154.3531272 1797.60313816 C-146.44704356 1805.51841339 -138.53920445 1813.43193124 -130.62964714 1821.34373558 C-126.34589781 1825.62883018 -122.06298537 1829.91475286 -117.78226662 1834.20287514 C-113.86265185 1838.12924328 -109.94073216 1842.05329374 -106.01697952 1845.97552663 C-104.598978 1847.39379934 -103.18182532 1848.81292135 -101.76561564 1850.23298329 C-92.66245897 1859.41872733 -92.66245897 1859.41872733 -83.04721212 1868.05868489 C-80.07659514 1870.6032289 -77.34869195 1873.40006701 -74.59301758 1876.17285156 C-73.95786728 1876.80785583 -73.32271698 1877.44286011 -72.6683197 1878.09710693 C-70.59916898 1880.16694642 -68.53356882 1882.24028973 -66.46801758 1884.3137207 C-65.02235486 1885.76125129 -63.57646912 1887.20855919 -62.13037109 1888.65565491 C-58.34708039 1892.44274173 -54.56680397 1896.23282327 -50.78717041 1900.02355957 C-46.92090113 1903.9001058 -43.05175682 1907.7737802 -39.18286133 1911.64770508 C-31.60844746 1919.23280495 -24.03721834 1926.82107514 -16.46801758 1934.41137695 C-15.3433486 1933.45264302 -14.21942171 1932.49303853 -13.09580994 1931.5330658 C-12.46984389 1930.99877929 -11.84387785 1930.46449278 -11.19894314 1929.91401577 C-9.31352283 1928.27725807 -7.53094319 1926.57426701 -5.78442383 1924.7902832 C-5.16631836 1924.16444336 -4.54821289 1923.53860352 -3.91137695 1922.89379883 C-2.6613364 1921.61779689 -1.41133614 1920.34175547 -0.16137695 1919.06567383 C2.90567648 1915.96032212 5.99958354 1912.96392574 9.31713867 1910.1262207 C14.66996441 1905.5112678 19.57371235 1900.4404313 24.53198242 1895.41137695 C35.03783111 1884.75554674 35.03783111 1884.75554674 39.50073242 1880.94262695 C44.98280319 1876.25327925 49.96923348 1871.0429177 55.03198242 1865.91137695 C60.69438473 1860.17203486 66.33275034 1854.49447729 72.4675293 1849.25317383 C77.02390365 1845.18821545 81.24620812 1840.75833498 85.53198242 1836.41137695 C91.02015153 1830.84485873 96.50574123 1825.35541219 102.44995117 1820.27075195 C107.01060868 1816.19781954 111.24024371 1811.76438454 115.53198242 1807.41137695 C121.02015153 1801.84485873 126.50574123 1796.35541219 132.44995117 1791.27075195 C137.01060868 1787.19781954 141.24024371 1782.76438454 145.53198242 1778.41137695 C156.03783111 1767.75554674 156.03783111 1767.75554674 160.50073242 1763.94262695 C165.98280319 1759.25327925 170.96923348 1754.0429177 176.03198242 1748.91137695 C181.69438473 1743.17203486 187.33275034 1737.49447729 193.4675293 1732.25317383 C198.02390365 1728.18821545 202.24620812 1723.75833498 206.53198242 1719.41137695 C212.02015153 1713.84485873 217.50574123 1708.35541219 223.44995117 1703.27075195 C228.01060868 1699.19781954 232.24024371 1694.76438454 236.53198242 1690.41137695 C247.03783111 1679.75554674 247.03783111 1679.75554674 251.50073242 1675.94262695 C256.98280319 1671.25327925 261.96923348 1666.0429177 267.03198242 1660.91137695 C272.69438473 1655.17203486 278.33275034 1649.49447729 284.4675293 1644.25317383 C289.02390365 1640.18821545 293.24620812 1635.75833498 297.53198242 1631.41137695 C303.02015153 1625.84485873 308.50574123 1620.35541219 314.44995117 1615.27075195 C319.01060868 1611.19781954 323.24024371 1606.76438454 327.53198242 1602.41137695 C333.02015153 1596.84485873 338.50574123 1591.35541219 344.44995117 1586.27075195 C349.01060868 1582.19781954 353.24024371 1577.76438454 357.53198242 1573.41137695 C368.03783111 1562.75554674 368.03783111 1562.75554674 372.50073242 1558.94262695 C377.98280319 1554.25327925 382.96923348 1549.0429177 388.03198242 1543.91137695 C393.69007678 1538.17640134 399.3239095 1532.50326328 405.4543457 1527.26635742 C410.07955708 1523.13682088 414.3669481 1518.63758124 418.71948242 1514.22387695 C420.64748742 1512.26907195 422.57893609 1510.31776158 424.51245117 1508.3684082 C425.77931763 1507.0841394 425.77931763 1507.0841394 427.07177734 1505.77392578 C429.53198242 1503.41137695 429.53198242 1503.41137695 432.28320312 1501.7265625 C437.74820068 1496.10018405 435.70539071 1483.68709818 435.74873447 1476.27474499 C435.7656606 1474.32636638 435.7656606 1474.32636638 435.78292868 1472.33862659 C435.81404501 1468.74170798 435.83944226 1465.14476858 435.86388386 1461.54779927 C435.89152731 1457.62986561 435.92453721 1453.7119765 435.95685571 1449.79407912 C436.01275417 1442.9279051 436.06522393 1436.06171153 436.11544037 1429.1954937 C436.19015762 1418.98073375 436.27015908 1408.76601992 436.35120495 1398.55130847 C436.49596779 1380.28394185 436.63546963 1362.01653788 436.77279255 1343.74911398 C436.89337794 1327.71076309 437.01577734 1311.67242728 437.13995171 1295.63410378 C437.15232572 1294.03543356 437.15232572 1294.03543356 437.16494971 1292.40446697 C437.19845001 1288.07671327 437.23195899 1283.74895963 437.26548081 1279.4212061 C437.58035735 1238.76670497 437.89001306 1198.11216556 438.19722016 1157.45760584 C438.46866653 1121.53925165 438.74419928 1085.62093116 439.0234375 1049.70263672 C439.09460448 1040.54790351 439.16576674 1031.39317027 439.23688602 1022.2384367 C439.25002956 1020.54657214 439.25002956 1020.54657214 439.26343862 1018.82052849 C439.49769864 988.65756408 439.72857358 958.49457376 439.95845503 928.33157569 C439.98332271 925.06911961 440.00819161 921.80666353 440.03306237 918.54420747 C440.04955506 916.38071356 440.06604532 914.21721963 440.08253315 912.05372569 C440.18011768 899.25235249 440.27830744 886.45098429 440.37798149 873.64962718 C440.41870871 868.41879796 440.45923474 863.18796738 440.4992316 857.95713251 C440.56964879 848.7656803 440.64110778 839.57424733 440.7200357 830.38286371 C440.7625254 825.42065343 440.80362712 820.45843252 440.84385586 815.49620342 C440.85172515 814.52623033 440.85959443 813.55625724 440.86770219 812.55689102 C440.97299198 799.2466504 441.0093874 785.9378226 440.99202005 772.62720471 C440.98327715 764.60359274 440.99112269 756.58000081 441.00283813 748.55639648 C441.00362829 747.70395279 441.00441844 746.85150909 441.00523253 745.97323377 C441.02953478 725.45902635 441.62795142 705.3298443 443.97023688 684.92638344 C448.03142644 649.30819029 448.61141485 622.61179379 425.63482492 593.31380063 C409.74773553 573.65363652 391.34479547 556.29980028 372.88464635 539.10309437 C365.84079186 532.53372619 358.91993377 525.85137132 352.06669617 519.08356857 C351.57431771 518.59743778 351.08193926 518.11130698 350.57464024 517.61044495 C348.07271131 515.13926991 345.57249636 512.66636829 343.07293099 510.19280283 C325.52109792 492.82969447 307.76515454 475.69081977 289.87182617 458.68041992 C272.54760355 442.21007118 255.32834178 425.64051017 238.23510742 408.93041992 C237.44067832 408.15391413 237.44067832 408.15391413 236.63020016 407.36172135 C231.30905503 402.16041647 225.98987403 396.95710677 220.67205347 391.75240303 C209.82664201 381.13789486 198.96681999 370.53817902 188.09875488 359.9468689 C187.34899431 359.21616396 187.34899431 359.21616396 186.58408707 358.47069731 C164.20861786 336.66612748 141.69544499 315.00723969 119.11987305 293.40991211 C117.8516527 292.196141 117.8516527 292.196141 116.55781174 290.95784926 C111.77045603 286.37614697 106.98085696 281.79681423 102.1873104 277.22158901 C100.76010507 275.85928655 99.33330826 274.49655594 97.90696555 273.13335033 C88.63217479 264.26459014 88.63217479 264.26459014 79.05281389 255.72818017 C77.13776839 254.07004899 75.32705206 252.32680062 73.53956604 250.53248596 C72.85688156 249.84973099 72.17419708 249.16697601 71.4708252 248.46353149 C70.75309937 247.74063934 70.03537354 247.01774719 69.29589844 246.27294922 C68.51605087 245.49164139 67.73620331 244.71033356 66.932724 243.90534973 C65.25437181 242.22321612 63.57717496 240.53992911 61.9010334 238.85559273 C59.25191764 236.19364765 56.59963259 233.53489698 53.94651794 230.87693787 C48.32635463 225.24539088 42.71013163 219.60992419 37.09448242 213.97387695 C30.56213012 207.41787091 24.02810109 200.86355453 17.48991203 194.31336784 C14.87035032 191.68729941 12.2538036 189.05825146 9.63734436 186.42909241 C8.04581098 184.83392974 6.45413885 183.23890548 4.86230469 181.64404297 C4.13040924 180.9069812 3.39851379 180.16991943 2.6444397 179.41052246 C1.98149399 178.74750626 1.31854828 178.08449005 0.63551331 177.40138245 C-0.23243945 176.53009878 -0.23243945 176.53009878 -1.1179266 175.64121342 C-3.34068464 173.61643959 -3.25499226 174.20826786 -5.56591797 176.41162109 Z " fill="#FFFFFF" transform="translate(1089.468017578125,51.588623046875)"/>
<path d="M0 0 C1.08486597 -0.01334822 1.08486597 -0.01334822 2.19164842 -0.02696609 C4.62233292 -0.05437883 7.05288669 -0.06770045 9.48368645 -0.08100128 C11.24182532 -0.0976249 12.99995674 -0.11505295 14.75808036 -0.13321733 C19.59655847 -0.1804706 24.43505593 -0.21496394 29.27365518 -0.24708176 C33.42378947 -0.27616673 37.57384829 -0.31251044 41.72392537 -0.34874457 C81.2406962 -0.69213882 120.75927654 -0.8603711 160.27723694 -0.99658203 C165.43474888 -1.01467627 170.59225954 -1.0330957 175.74976921 -1.05182648 C177.67235142 -1.05878622 177.67235142 -1.05878622 179.63377367 -1.06588656 C200.28619304 -1.14303499 220.93709944 -1.30377816 241.58871295 -1.49808401 C262.8570383 -1.69650551 284.12458757 -1.80916049 305.39381683 -1.84373903 C317.30872668 -1.86536434 329.22086815 -1.92385709 341.13484383 -2.07964325 C434.93547813 -3.26787215 434.93547813 -3.26787215 473.3403616 19.75042439 C479.60764558 23.48287686 486.25243588 26.15062607 493.01099968 28.86223602 C495.10779302 29.75442103 497.20279215 30.65085054 499.29493523 31.55388641 C500.29455284 31.9817041 501.29417046 32.40952179 502.32407951 32.85030365 C505.67942824 34.28640225 509.03433278 35.72353509 512.38917351 37.16082001 C523.04096912 41.72392816 533.69398812 46.28417101 544.34808159 50.84191132 C577.19374425 64.89419752 609.99168639 79.0512947 642.74928093 93.30754852 C642.74928093 93.96754852 642.74928093 94.62754852 642.74928093 95.30754852 C618.32383706 105.96774517 593.87321656 116.56724274 569.37428093 127.05754852 C568.20762901 127.55713074 567.0409771 128.05671295 565.83897209 128.57143402 C556.2920819 132.65900851 546.74385109 136.74344771 537.19550896 140.82762909 C528.98363156 144.34028709 520.77232238 147.85426894 512.56178093 151.37004852 C511.41980247 151.8589859 510.27782402 152.34792328 509.10124016 152.85167694 C488.76685759 161.56042239 468.46759941 170.34850732 448.18409538 179.17498016 C447.11405266 179.64038712 446.04400993 180.10579407 444.94154167 180.58530426 C442.94970135 181.45180376 440.95814548 182.31895758 438.9669323 183.18689728 C437.64356865 183.76264748 437.64356865 183.76264748 436.29347038 184.35002899 C435.5319416 184.68179138 434.77041283 185.01355377 433.98580742 185.35536957 C433.24775368 185.66958862 432.50969994 185.98380768 431.74928093 186.30754852 C431.02769865 186.65084403 430.30611637 186.99413953 429.56266797 187.34783792 C426.08950194 188.53261421 423.1698807 188.58328986 419.49856186 188.61509705 C418.77531788 188.62399586 418.0520739 188.63289467 417.30691344 188.64206314 C414.87622894 188.66947587 412.44567517 188.6827975 410.01487541 188.69609833 C408.25673654 188.71272195 406.49860512 188.73015 404.7404815 188.74831438 C399.90200339 188.79556764 395.06350593 188.83006098 390.22490668 188.8621788 C386.07477239 188.89126377 381.92471357 188.92760749 377.77463649 188.96384162 C338.25786566 189.30723587 298.73928532 189.47546814 259.22132492 189.61167908 C254.06381298 189.62977331 248.90630232 189.64819275 243.74879265 189.66692352 C241.82621044 189.67388326 241.82621044 189.67388326 239.86478819 189.6809836 C219.21236882 189.75813203 198.56146242 189.91887521 177.90984891 190.11318105 C156.64152356 190.31160256 135.37397429 190.42425753 114.10474503 190.45883608 C102.18983518 190.48046138 90.27769371 190.53895414 78.36371803 190.6947403 C-15.43691627 191.8829692 -15.43691627 191.8829692 -53.84179974 168.86467266 C-60.10908372 165.13222019 -66.75387402 162.46447097 -73.51243782 159.75286102 C-75.60923117 158.86067601 -77.7042303 157.96424651 -79.79637337 157.06121063 C-80.79599098 156.63339294 -81.7956086 156.20557526 -82.82551765 155.7647934 C-86.18086638 154.3286948 -89.53577092 152.89156195 -92.89061165 151.45427704 C-103.54240726 146.89116889 -114.19542626 142.33092604 -124.84951973 137.77318573 C-157.69518239 123.72089952 -190.49312453 109.56380234 -223.25071907 95.30754852 C-223.25071907 94.64754852 -223.25071907 93.98754852 -223.25071907 93.30754852 C-198.8252752 82.64735187 -174.37465471 72.04785431 -149.87571907 61.55754852 C-148.70906715 61.05796631 -147.54241524 60.55838409 -146.34041023 60.04366302 C-136.79352004 55.95608854 -127.24528923 51.87164934 -117.6969471 47.78746796 C-109.4850697 44.27480996 -101.27376052 40.7608281 -93.06321907 37.24504852 C-91.92124062 36.75611115 -90.77926216 36.26717377 -89.6026783 35.7634201 C-69.26829573 27.05467465 -48.96903755 18.26658973 -28.68553352 9.44011688 C-27.08046944 8.74200645 -27.08046944 8.74200645 -25.44297981 8.02979279 C-23.45113949 7.16329328 -21.45958362 6.29613947 -19.46837044 5.42819977 C-18.58612801 5.0443663 -17.70388557 4.66053284 -16.79490852 4.26506805 C-16.03337975 3.93330566 -15.27185097 3.60154327 -14.48724556 3.25972748 C-13.74919182 2.94550842 -13.01113808 2.63128937 -12.25071907 2.30754852 C-11.52913679 1.96425302 -10.80755451 1.62095752 -10.06410611 1.26725912 C-6.59094008 0.08248283 -3.67131884 0.03180719 0 0 Z M161.24537468 53.16301727 C149.54005929 68.06945681 144.97460076 84.5443018 146.74928093 103.30754852 C149.23173492 120.13176277 158.19670405 134.59498075 171.43678093 145.12004852 C177.81041127 149.65638236 184.3861859 152.67468424 191.74928093 155.30754852 C192.49306999 155.57438446 193.23685905 155.8412204 194.00318718 156.11614227 C209.79805085 160.59805075 227.34461174 156.94911098 241.42115593 149.32317352 C246.51045694 146.2409208 250.61403946 142.55825921 254.74928093 138.30754852 C255.45697624 137.62047821 256.16467155 136.9334079 256.89381218 136.22551727 C268.43837032 124.32777953 273.30079254 108.58462194 273.0988903 92.25383759 C272.49821391 75.3618432 265.81801406 61.04843831 253.74928093 49.30754852 C252.71867546 48.24600555 252.71867546 48.24600555 251.66724968 47.16301727 C239.60775951 35.46150826 223.88452012 30.78030485 207.39185905 30.95793915 C189.51825862 31.51601781 173.02990061 39.72387772 161.24537468 53.16301727 Z " fill="#FFFFFF" transform="translate(870.2507190704346,985.6924514770508)"/>
</svg>
